<svg xmlns="http://www.w3.org/2000/svg" width="62" height="61" viewBox="0 0 62 61">
  <defs>
    <style>
      .cls-1 {
        fill: none;
      }

      .cls-2 {
        fill: #9cc713;
        font-size: 20px;
        font-family: SairaCondensed-SemiBold, Saira Condensed;
        font-weight: 600;
      }

      .cls-3 {
        fill: #ed8f1e;
      }

      .cls-4, .cls-5 {
        stroke: none;
      }

      .cls-5 {
        fill: #ed8f1e;
      }
    </style>
  </defs>
  <g id="Group_5" data-name="Group 5" transform="translate(-52 -33)">
    <g id="Group_4" data-name="Group 4" transform="translate(0 26.979)">
      <g id="Group_3" data-name="Group 3" transform="translate(52 6)">
        <g id="Path_3" data-name="Path 3" class="cls-1" transform="translate(0 0.021)">
          <path class="cls-4" d="M31,0C48.121,0,62,13.655,62,30.5S48.121,61,31,61,0,47.345,0,30.5,13.879,0,31,0Z"/>
          <path class="cls-5" d="M 31 4 C 27.34524536132812 4 23.80251693725586 4.703117370605469 20.47021102905273 6.089836120605469 C 17.25375366210938 7.428340911865234 14.36528396606445 9.344329833984375 11.88503646850586 11.78457641601562 C 9.409294128417969 14.22037506103516 7.466609954833984 17.05436325073242 6.110942840576172 20.20782470703125 C 4.710224151611328 23.46608352661133 4 26.92887115478516 4 30.5 C 4 34.07112884521484 4.710224151611328 37.53392028808594 6.110942840576172 40.79217529296875 C 7.466609954833984 43.94563293457031 9.409294128417969 46.77962493896484 11.88503646850586 49.21542358398438 C 14.36528396606445 51.65567016601562 17.25375366210938 53.57165908813477 20.47021102905273 54.91016387939453 C 23.80251693725586 56.29688262939453 27.34524536132812 57 31 57 C 34.65475463867188 57 38.19748306274414 56.29688262939453 41.52978897094727 54.91016387939453 C 44.74624633789062 53.57165908813477 47.63471984863281 51.65567016601562 50.11496353149414 49.21542358398438 C 52.59070587158203 46.77962493896484 54.53338623046875 43.94563293457031 55.88905715942383 40.79217529296875 C 57.28977584838867 37.53392028808594 58 34.07112884521484 58 30.5 C 58 26.92887115478516 57.28977584838867 23.46608352661133 55.88905715942383 20.20782470703125 C 54.53338623046875 17.05436325073242 52.59070587158203 14.22037506103516 50.11496353149414 11.78457641601562 C 47.63471984863281 9.344329833984375 44.74624633789062 7.428340911865234 41.52978897094727 6.089836120605469 C 38.19748306274414 4.703117370605469 34.65475463867188 4 31 4 M 31 0 C 48.12082290649414 0 62 13.65531921386719 62 30.5 C 62 47.34468078613281 48.12082290649414 61 31 61 C 13.87917709350586 61 0 47.34468078613281 0 30.5 C 0 13.65531921386719 13.87917709350586 0 31 0 Z"/>
        </g>
        <text id="ECO_SHOE" data-name="ECO
SHOE" class="cls-2" transform="translate(2 3.021)"><tspan x="17.28" y="23">ECO</tspan><tspan class="cls-3"><tspan x="10.95" y="43">SHOE</tspan></tspan></text>
      </g>
    </g>
  </g>
</svg>
